HIERARCHY
ROOT SpineBase
{
  OFFSET 0.000000 0.000000 0.000000
  CHANNELS 6 Xposition Yposition Zposition Zrotation Xrotation Yrotation
  JOINT SpineMid
  {
    OFFSET 0.000000 33.858586 0.000000
    CHANNELS 3 Zrotation Xrotation Yrotation
    JOINT SpineShoulder
    {
      OFFSET 0.021311 24.935302 -0.842859
      CHANNELS 3 Zrotation Xrotation Yrotation
      JOINT Neck
      {
        OFFSET 0.024713 8.178470 -0.625201
        CHANNELS 3 Zrotation Xrotation Yrotation
        JOINT Head
        {
          OFFSET 3.023490 11.817929 5.432713
          CHANNELS 3 Zrotation Xrotation Yrotation
          End Site
          {
            OFFSET 0 0 0
          }
        }
      }
      JOINT ShoulderLeft
      {
        OFFSET -10.807052 -2.923909 19.628665
        CHANNELS 3 Zrotation Xrotation Yrotation
        JOINT ElbowLeft
        {
          OFFSET 7.562992 -16.679463 -26.318692
          CHANNELS 3 Zrotation Xrotation Yrotation
          JOINT WristLeft
          {
            OFFSET 7.825093 -18.493984 -11.623966
            CHANNELS 3 Zrotation Xrotation Yrotation
            JOINT HandLeft
            {
              OFFSET -3.482758 -3.541660 3.250928
              CHANNELS 3 Zrotation Xrotation Yrotation
              JOINT HandTipLeft
              {
                OFFSET -1.583423 -7.546225 -2.368744
                CHANNELS 3 Zrotation Xrotation Yrotation
                End Site
                {
                  OFFSET 0 0 0
                }
              }
              JOINT ThumbLeft
              {
                OFFSET 6.440369 -2.370732 0.976499
                CHANNELS 3 Zrotation Xrotation Yrotation
                End Site
                {
                  OFFSET 0 0 0
                }
              }
            }
          }
        }
      }
      JOINT ShoulderRight
      {
        OFFSET -1.928694 -6.597148 -17.997763
        CHANNELS 3 Zrotation Xrotation Yrotation
        JOINT ElbowRight
        {
          OFFSET -2.743180 -21.608139 -8.396519
          CHANNELS 3 Zrotation Xrotation Yrotation
          JOINT WristRight
          {
            OFFSET -16.252255 2.343462 13.986276
            CHANNELS 3 Zrotation Xrotation Yrotation
            JOINT HandRight
            {
              OFFSET -4.478726 -1.031610 3.942054
              CHANNELS 3 Zrotation Xrotation Yrotation
              JOINT HandTipRight
              {
                OFFSET -0.168096 -3.976200 -0.342449
                CHANNELS 3 Zrotation Xrotation Yrotation
                End Site
                {
                  OFFSET 0 0 0
                }
              }
              JOINT ThumbRight
              {
                OFFSET 0.629308 2.859866 -2.679684
                CHANNELS 3 Zrotation Xrotation Yrotation
                End Site
                {
                  OFFSET 0 0 0
                }
              }
            }
          }
        }
      }
    }
  }
  JOINT HipLeft
  {
    OFFSET -1.802522 0.130010 -6.394212
    CHANNELS 3 Zrotation Xrotation Yrotation
    JOINT KneeLeft
    {
      OFFSET -11.784871 -37.025516 8.341917
      CHANNELS 3 Zrotation Xrotation Yrotation
      JOINT AnkleLeft
      {
        OFFSET -9.046303 -30.352878 25.415461
        CHANNELS 3 Zrotation Xrotation Yrotation
        JOINT FootLeft
        {
          OFFSET 5.488739 -4.033483 -15.523102
          CHANNELS 3 Zrotation Xrotation Yrotation
          End Site
          {
            OFFSET 0 0 0
          }
        }
      }
    }
  }
  JOINT HipRight
  {
    OFFSET 2.182664 0.618099 -1.593696
    CHANNELS 3 Zrotation Xrotation Yrotation
    JOINT KneeRight
    {
      OFFSET -6.490442 -30.658533 -6.191335
      CHANNELS 3 Zrotation Xrotation Yrotation
      JOINT AnkleRight
      {
        OFFSET -7.995967 -40.867414 7.147780
        CHANNELS 3 Zrotation Xrotation Yrotation
        JOINT FootRight
        {
          OFFSET -1.559656 -5.588515 8.109502
          CHANNELS 3 Zrotation Xrotation Yrotation
          End Site
          {
            OFFSET 0 0 0
          }
        }
      }
    }
  }
}
MOTION
Frames: 9
Frame Time: 0.033333
-16.672363 79.160682 337.290381 -0.000000 0.000000 -50.301976 0.000000 0.000000 50.301976 -0.000000 0.000000 0.000000 -0.000000 0.000000 0.000000 0.000000 0.000000 0.000000 -0.000000 0.000000 0.000000 -0.000000 0.000000 0.000000 -0.000000 0.000000 0.000000 -0.000000 0.000000 0.000000 0.000000 0.000000 0.000000 0.000000 0.000000 0.000000 -0.000000 0.000000 0.000000 -0.000000 0.000000 0.000000 -0.000000 0.000000 0.000000 -0.000000 0.000000 0.000000 0.000000 0.000000 0.000000 0.000000 0.000000 0.000000 0.000000 0.000000 50.301976 -0.000000 0.000000 0.000000 -0.000000 0.000000 0.000000 0.000000 0.000000 0.000000 0.000000 0.000000 50.301976 -0.000000 0.000000 0.000000 -0.000000 0.000000 0.000000 0.000000 0.000000 0.000000
-16.689571 79.134482 337.124821 -0.001655 0.011694 -49.210939 0.009935 -0.006386 49.210940 -0.000000 0.000000 0.000000 -0.000000 0.000000 0.000000 0.000000 0.000000 0.000000 -0.000000 0.000000 0.000000 -0.000000 0.000000 0.000000 0.445255 -0.536324 0.937732 -0.725979 1.490358 -1.030093 0.000000 0.000000 0.000000 0.000000 0.000000 0.000000 -0.000000 0.000000 0.000000 -0.000000 0.000000 0.000000 -6.686744 -7.772848 5.126000 4.933457 8.020649 -5.525028 0.000000 0.000000 0.000000 0.000000 0.000000 0.000000 0.009935 -0.006386 49.210940 -0.000000 0.000000 0.000000 -0.000000 0.000000 0.000000 0.000000 0.000000 0.000000 0.059932 -0.976443 49.495237 0.705141 0.668063 -0.287979 1.097019 -4.854964 2.827214 0.000000 0.000000 0.000000
-16.696773 79.112171 336.969817 -0.003880 0.010623 -48.142025 0.010502 -0.004199 48.142026 -0.000000 0.000000 0.000000 0.024847 -0.871464 0.212480 0.000000 0.000000 0.000000 -0.000000 0.000000 0.000000 -0.000000 0.000000 0.000000 0.844290 -0.973674 1.738577 -1.235315 2.714643 -1.918657 0.000000 0.000000 0.000000 0.000000 0.000000 0.000000 0.830662 0.098271 -0.336170 -0.830072 -0.103133 0.334710 -11.000825 -14.441039 10.205810 8.546354 14.411525 -11.464161 0.000000 0.000000 0.000000 0.000000 0.000000 0.000000 0.010502 -0.004199 48.142026 -0.000000 0.000000 0.000000 -0.000000 0.000000 0.000000 0.000000 0.000000 0.000000 0.162853 -1.779426 48.665732 1.232531 1.286762 -0.535176 1.958524 -8.995119 4.965390 0.000000 0.000000 0.000000
-16.693969 79.093747 336.825368 -0.006675 -0.003210 -47.075762 0.002195 0.007074 47.075761 -0.000000 0.000000 0.000000 0.091815 -1.174004 0.260379 0.000000 0.000000 0.000000 -0.156396 -0.846783 -0.140061 0.154343 0.847160 0.137765 1.186415 -1.306066 2.385970 -1.520337 3.609171 -2.658570 0.000000 0.000000 0.000000 0.000000 0.000000 0.000000 0.964647 0.101575 -0.388883 -0.349099 0.368532 -0.002128 -13.579832 -20.208873 15.841050 10.523345 19.399761 -17.248227 0.000000 0.000000 0.000000 0.000000 0.000000 0.000000 0.798622 -0.029223 47.385698 -0.512537 0.610679 -0.307051 -0.000000 0.000000 0.000000 0.000000 0.000000 0.000000 0.312873 -2.422705 47.797763 1.591710 1.862160 -0.741321 2.479953 -12.514760 6.391754 0.000000 0.000000 0.000000
-16.681160 79.079211 336.691475 -0.010039 -0.029805 -45.994714 -0.014464 0.027927 45.994715 -0.000000 0.000000 0.000000 0.194712 -1.385704 0.268992 0.000000 0.000000 0.000000 -0.189907 -1.113528 -0.210499 0.185850 1.114212 0.206846 1.462964 -1.529959 2.867341 -1.579953 4.123415 -3.242299 0.000000 0.000000 0.000000 0.000000 0.000000 0.000000 0.911673 0.075366 -0.364708 -0.208779 0.465320 -0.062448 -13.734790 -23.968848 21.691519 10.719372 23.429567 -22.547679 0.000000 0.000000 0.000000 0.000000 0.000000 0.000000 0.944297 -0.009444 46.366477 -0.634571 0.719694 -0.367931 -0.000000 0.000000 0.000000 0.000000 0.000000 0.000000 0.513600 -2.918788 46.876860 1.790627 2.399432 -0.906323 2.570512 -15.511217 7.072259 0.000000 0.000000 0.000000
-16.658345 79.068562 336.568137 -0.013972 -0.069160 -44.882397 -0.038903 0.058863 44.882409 -0.000000 0.000000 0.000000 0.333212 -1.505695 0.238053 0.000000 0.000000 0.000000 -0.214218 -1.372515 -0.292699 0.207264 1.373583 0.287649 1.667787 -1.644166 3.174667 -1.419673 4.225759 -3.661319 0.000000 0.000000 0.000000 0.000000 0.000000 0.000000 -0.000000 0.000000 0.000000 0.734342 0.568033 -0.416169 -12.247689 -26.131564 28.017390 9.043636 26.919151 -27.170262 0.000000 0.000000 0.000000 0.000000 0.000000 0.000000 1.031420 0.029866 45.294999 -0.732357 0.781101 -0.408427 -0.000000 0.000000 0.000000 0.000000 0.000000 0.000000 0.768597 -3.279200 45.888737 1.835730 2.902930 -1.030146 2.136276 -18.061125 6.946286 0.000000 0.000000 0.000000
-16.612430 79.064709 336.478306 -0.009100 -0.125067 -43.864478 -0.080105 0.096476 43.864535 -0.000000 0.000000 0.000000 0.646254 -1.496698 0.094998 0.000000 0.000000 0.000000 -0.277754 -1.710333 -0.350079 -0.033822 0.824939 0.165613 2.085887 -0.857882 3.535237 -0.918647 3.834458 -3.986981 0.000000 0.000000 0.000000 0.000000 0.000000 0.000000 -0.000000 0.000000 0.000000 0.694567 0.540354 -0.374880 -8.213326 -27.782632 39.012419 -2.457468 31.837954 -30.437910 0.000000 0.000000 0.000000 0.000000 0.000000 0.000000 1.029727 0.080720 44.289330 -0.783478 0.786240 -0.421135 -0.000000 0.000000 0.000000 0.000000 0.000000 0.000000 1.244652 -3.594373 44.990390 1.480530 4.719641 -1.390137 1.720676 -22.405694 6.827745 0.000000 0.000000 0.000000
-16.550849 79.064390 336.383122 -0.005435 -0.184915 -42.902765 -0.121901 0.139152 42.902904 -0.000000 0.000000 0.000000 1.032272 -1.377974 -0.110443 0.000000 0.000000 0.000000 -0.299717 -1.992165 -0.448519 -0.034890 0.894455 0.186042 2.092686 -0.511589 3.464335 -1.222760 3.347287 -3.667891 0.000000 0.000000 0.000000 0.000000 0.000000 0.000000 -0.000000 0.000000 0.000000 -0.000000 0.000000 0.000000 -9.159342 -28.193406 36.642676 -19.716067 31.275939 -19.363127 0.000000 0.000000 0.000000 0.000000 0.000000 0.000000 0.945079 0.144695 43.307417 -0.780249 0.727815 -0.402201 -0.000000 0.000000 0.000000 0.000000 0.000000 0.000000 1.678856 -3.588151 44.046431 0.986918 5.743595 -1.522310 0.702760 -26.067317 5.901609 0.000000 0.000000 0.000000
-16.365856 79.030333 336.305967 0.144073 -0.300592 -41.613111 -0.307339 0.129056 41.613835 -0.000000 0.000000 0.000000 1.189870 -1.348415 -0.189537 0.000000 0.000000 0.000000 -0.249082 -2.182216 -0.620574 -0.018011 0.891693 0.230739 2.232151 0.412073 3.074606 -1.739311 2.595294 -3.083700 0.000000 0.000000 0.000000 0.000000 0.000000 0.000000 -0.847104 -0.289860 0.363845 0.848938 0.284443 -0.368095 -2.379845 -24.802288 48.554336 -41.138703 41.463258 -13.587476 0.000000 0.000000 0.000000 0.000000 0.000000 0.000000 0.532878 0.077833 41.936135 -0.590810 0.599619 -0.320726 -0.000000 0.000000 0.000000 0.000000 0.000000 0.000000 1.800552 -3.520221 42.728036 0.461122 6.537805 -1.605649 -1.806892 -28.133483 2.758871 0.000000 0.000000 0.000000
